<mxfile host="app.diagrams.net" modified="2023-09-22T10:22:49.865Z" agent="Mozilla/5.0 (Windows NT 10.0; Win64; x64) AppleWebKit/537.36 (KHTML, like Gecko) Chrome/117.0.0.0 Safari/537.36 Edg/117.0.2045.31" etag="XR2UaqN2z0kyqrqS2sQq" version="21.7.2" type="github">
  <diagram name="Page-1" id="EMRwDJ8s_3Zg5q5j3q0t">
    <mxGraphModel dx="3230" dy="1256" grid="1" gridSize="10" guides="1" tooltips="1" connect="1" arrows="1" fold="1" page="1" pageScale="1" pageWidth="850" pageHeight="1100" math="0" shadow="0">
      <root>
        <mxCell id="0" />
        <mxCell id="1" parent="0" />
        <mxCell id="75rw1hecKQY-QGVVvUyk-109" value="" style="rounded=0;whiteSpace=wrap;html=1;" vertex="1" parent="1">
          <mxGeometry x="-120" y="70" width="1095" height="725" as="geometry" />
        </mxCell>
        <mxCell id="75rw1hecKQY-QGVVvUyk-8" value="" style="endArrow=none;dashed=1;html=1;rounded=0;" edge="1" parent="1">
          <mxGeometry width="50" height="50" relative="1" as="geometry">
            <mxPoint x="175" y="770" as="sourcePoint" />
            <mxPoint x="174.5" y="180" as="targetPoint" />
          </mxGeometry>
        </mxCell>
        <mxCell id="75rw1hecKQY-QGVVvUyk-1" value="" style="endArrow=none;dashed=1;html=1;rounded=0;" edge="1" parent="1">
          <mxGeometry width="50" height="50" relative="1" as="geometry">
            <mxPoint x="545" y="780" as="sourcePoint" />
            <mxPoint x="544.5799999999999" y="180" as="targetPoint" />
          </mxGeometry>
        </mxCell>
        <mxCell id="75rw1hecKQY-QGVVvUyk-2" value="" style="rounded=1;whiteSpace=wrap;html=1;rotation=-90;" vertex="1" parent="1">
          <mxGeometry x="304.37" y="513.82" width="481.22" height="10" as="geometry" />
        </mxCell>
        <mxCell id="75rw1hecKQY-QGVVvUyk-3" value="" style="rounded=1;whiteSpace=wrap;html=1;rotation=-90;" vertex="1" parent="1">
          <mxGeometry x="-80.66" y="498.18" width="511.33" height="10" as="geometry" />
        </mxCell>
        <mxCell id="75rw1hecKQY-QGVVvUyk-4" value="CameraProvider" style="rounded=0;whiteSpace=wrap;html=1;" vertex="1" parent="1">
          <mxGeometry x="130" y="140" width="90" height="40" as="geometry" />
        </mxCell>
        <mxCell id="75rw1hecKQY-QGVVvUyk-5" value="UsbDetect" style="rounded=0;whiteSpace=wrap;html=1;" vertex="1" parent="1">
          <mxGeometry x="330" y="140" width="90" height="40" as="geometry" />
        </mxCell>
        <mxCell id="75rw1hecKQY-QGVVvUyk-9" value="" style="endArrow=none;dashed=1;html=1;rounded=0;" edge="1" parent="1">
          <mxGeometry width="50" height="50" relative="1" as="geometry">
            <mxPoint x="375" y="770" as="sourcePoint" />
            <mxPoint x="374.58" y="180" as="targetPoint" />
          </mxGeometry>
        </mxCell>
        <mxCell id="75rw1hecKQY-QGVVvUyk-12" value="User" style="shape=umlActor;verticalLabelPosition=bottom;verticalAlign=top;html=1;outlineConnect=0;" vertex="1" parent="1">
          <mxGeometry x="-90" y="170" width="30" height="40" as="geometry" />
        </mxCell>
        <mxCell id="75rw1hecKQY-QGVVvUyk-13" value="Application" style="rounded=0;whiteSpace=wrap;html=1;" vertex="1" parent="1">
          <mxGeometry y="140" width="90" height="40" as="geometry" />
        </mxCell>
        <mxCell id="75rw1hecKQY-QGVVvUyk-14" value="" style="endArrow=none;dashed=1;html=1;rounded=0;" edge="1" parent="1">
          <mxGeometry width="50" height="50" relative="1" as="geometry">
            <mxPoint x="45" y="780" as="sourcePoint" />
            <mxPoint x="44.5" y="180" as="targetPoint" />
          </mxGeometry>
        </mxCell>
        <mxCell id="75rw1hecKQY-QGVVvUyk-15" value="" style="endArrow=classic;html=1;rounded=0;fillColor=#dae8fc;strokeColor=#6c8ebf;strokeWidth=2;" edge="1" parent="1">
          <mxGeometry width="50" height="50" relative="1" as="geometry">
            <mxPoint x="-70" y="230" as="sourcePoint" />
            <mxPoint x="40" y="230" as="targetPoint" />
          </mxGeometry>
        </mxCell>
        <mxCell id="75rw1hecKQY-QGVVvUyk-16" value="Open" style="edgeLabel;html=1;align=center;verticalAlign=middle;resizable=0;points=[];" vertex="1" connectable="0" parent="75rw1hecKQY-QGVVvUyk-15">
          <mxGeometry x="-0.1303" relative="1" as="geometry">
            <mxPoint x="3" y="-10" as="offset" />
          </mxGeometry>
        </mxCell>
        <mxCell id="75rw1hecKQY-QGVVvUyk-17" value="" style="endArrow=classic;html=1;rounded=0;fillColor=#dae8fc;strokeColor=#6c8ebf;strokeWidth=2;" edge="1" parent="1">
          <mxGeometry width="50" height="50" relative="1" as="geometry">
            <mxPoint x="50" y="250" as="sourcePoint" />
            <mxPoint x="170" y="250" as="targetPoint" />
          </mxGeometry>
        </mxCell>
        <mxCell id="75rw1hecKQY-QGVVvUyk-18" value="Initialize" style="edgeLabel;html=1;align=center;verticalAlign=middle;resizable=0;points=[];" vertex="1" connectable="0" parent="75rw1hecKQY-QGVVvUyk-17">
          <mxGeometry x="0.3528" y="-1" relative="1" as="geometry">
            <mxPoint x="-21" y="-11" as="offset" />
          </mxGeometry>
        </mxCell>
        <mxCell id="75rw1hecKQY-QGVVvUyk-19" value="" style="endArrow=classic;html=1;rounded=0;exitX=0.869;exitY=1;exitDx=0;exitDy=0;exitPerimeter=0;fillColor=#dae8fc;strokeColor=#6c8ebf;strokeWidth=2;" edge="1" parent="1">
          <mxGeometry width="50" height="50" relative="1" as="geometry">
            <mxPoint x="180" y="260.12846000000013" as="sourcePoint" />
            <mxPoint x="367.5" y="259.74" as="targetPoint" />
          </mxGeometry>
        </mxCell>
        <mxCell id="75rw1hecKQY-QGVVvUyk-20" value="Initialize" style="edgeLabel;html=1;align=center;verticalAlign=middle;resizable=0;points=[];" vertex="1" connectable="0" parent="75rw1hecKQY-QGVVvUyk-19">
          <mxGeometry x="-0.3278" y="-3" relative="1" as="geometry">
            <mxPoint x="27" y="-13" as="offset" />
          </mxGeometry>
        </mxCell>
        <mxCell id="75rw1hecKQY-QGVVvUyk-21" value="&lt;b&gt;&lt;font style=&quot;font-size: 18px;&quot; color=&quot;#ff1f1f&quot;&gt;How to detect plugged or removed device&lt;/font&gt;&lt;/b&gt;" style="text;html=1;strokeColor=none;fillColor=none;align=center;verticalAlign=middle;whiteSpace=wrap;rounded=0;" vertex="1" parent="1">
          <mxGeometry x="290" y="90" width="270" height="30" as="geometry" />
        </mxCell>
        <mxCell id="75rw1hecKQY-QGVVvUyk-27" value="" style="rounded=1;whiteSpace=wrap;html=1;rotation=-90;" vertex="1" parent="1">
          <mxGeometry x="-221.56" y="486.57" width="533.13" height="10" as="geometry" />
        </mxCell>
        <mxCell id="75rw1hecKQY-QGVVvUyk-32" value="" style="rounded=1;whiteSpace=wrap;html=1;rotation=-90;" vertex="1" parent="1">
          <mxGeometry x="124.14" y="505.13" width="501.74" height="10" as="geometry" />
        </mxCell>
        <mxCell id="75rw1hecKQY-QGVVvUyk-33" value="false" style="shape=umlFrame;whiteSpace=wrap;html=1;pointerEvents=0;width=60;height=18;" vertex="1" parent="1">
          <mxGeometry x="100" y="289.74" width="470" height="37.7" as="geometry" />
        </mxCell>
        <mxCell id="75rw1hecKQY-QGVVvUyk-34" value="" style="endArrow=classic;html=1;rounded=0;dashed=1;dashPattern=8 8;fillColor=#f8cecc;strokeColor=#b85450;strokeWidth=2;" edge="1" parent="1">
          <mxGeometry width="50" height="50" relative="1" as="geometry">
            <mxPoint x="365" y="319.74" as="sourcePoint" />
            <mxPoint x="190" y="319.74" as="targetPoint" />
          </mxGeometry>
        </mxCell>
        <mxCell id="75rw1hecKQY-QGVVvUyk-35" value="Cannot Open" style="edgeLabel;html=1;align=center;verticalAlign=middle;resizable=0;points=[];" vertex="1" connectable="0" parent="75rw1hecKQY-QGVVvUyk-34">
          <mxGeometry x="0.0207" y="3" relative="1" as="geometry">
            <mxPoint x="-6" y="-13" as="offset" />
          </mxGeometry>
        </mxCell>
        <mxCell id="75rw1hecKQY-QGVVvUyk-36" value="true" style="shape=umlFrame;whiteSpace=wrap;html=1;pointerEvents=0;width=60;height=18;" vertex="1" parent="1">
          <mxGeometry x="100" y="339.74" width="470" height="110" as="geometry" />
        </mxCell>
        <mxCell id="75rw1hecKQY-QGVVvUyk-37" value="" style="endArrow=classic;startArrow=classic;html=1;rounded=0;exitX=0.168;exitY=1.367;exitDx=0;exitDy=0;exitPerimeter=0;fillColor=#d5e8d4;strokeColor=#82b366;strokeWidth=2;" edge="1" parent="1">
          <mxGeometry width="50" height="50" relative="1" as="geometry">
            <mxPoint x="179.99999999999986" y="379.19000000000005" as="sourcePoint" />
            <mxPoint x="366.33" y="378.49" as="targetPoint" />
            <Array as="points">
              <mxPoint x="196.33" y="378.49" />
            </Array>
          </mxGeometry>
        </mxCell>
        <mxCell id="75rw1hecKQY-QGVVvUyk-38" value="Connect numberOfPort" style="edgeLabel;html=1;align=center;verticalAlign=middle;resizable=0;points=[];" vertex="1" connectable="0" parent="75rw1hecKQY-QGVVvUyk-37">
          <mxGeometry x="-0.1417" y="2" relative="1" as="geometry">
            <mxPoint x="10" y="-8" as="offset" />
          </mxGeometry>
        </mxCell>
        <mxCell id="75rw1hecKQY-QGVVvUyk-39" value="" style="endArrow=classic;html=1;rounded=0;exitX=0.147;exitY=1.367;exitDx=0;exitDy=0;exitPerimeter=0;fillColor=#dae8fc;strokeColor=#6c8ebf;strokeWidth=2;" edge="1" parent="1">
          <mxGeometry width="50" height="50" relative="1" as="geometry">
            <mxPoint x="183.67000000000007" y="439.74250000000006" as="sourcePoint" />
            <mxPoint x="370" y="440.38" as="targetPoint" />
          </mxGeometry>
        </mxCell>
        <mxCell id="75rw1hecKQY-QGVVvUyk-40" value="Start UsbDetect Thread" style="edgeLabel;html=1;align=center;verticalAlign=middle;resizable=0;points=[];" vertex="1" connectable="0" parent="75rw1hecKQY-QGVVvUyk-39">
          <mxGeometry x="-0.3278" y="-3" relative="1" as="geometry">
            <mxPoint x="34" y="-13" as="offset" />
          </mxGeometry>
        </mxCell>
        <mxCell id="75rw1hecKQY-QGVVvUyk-41" value="" style="endArrow=classic;startArrow=classic;html=1;rounded=0;exitX=0.168;exitY=1.367;exitDx=0;exitDy=0;exitPerimeter=0;fillColor=#d5e8d4;strokeColor=#82b366;strokeWidth=2;" edge="1" parent="1">
          <mxGeometry width="50" height="50" relative="1" as="geometry">
            <mxPoint x="179.99999999999986" y="410.44000000000005" as="sourcePoint" />
            <mxPoint x="366.33" y="409.74" as="targetPoint" />
            <Array as="points">
              <mxPoint x="196.33" y="409.74" />
            </Array>
          </mxGeometry>
        </mxCell>
        <mxCell id="75rw1hecKQY-QGVVvUyk-42" value="Connect pluggedDevices" style="edgeLabel;html=1;align=center;verticalAlign=middle;resizable=0;points=[];" vertex="1" connectable="0" parent="75rw1hecKQY-QGVVvUyk-41">
          <mxGeometry x="-0.1417" y="2" relative="1" as="geometry">
            <mxPoint x="10" y="-8" as="offset" />
          </mxGeometry>
        </mxCell>
        <mxCell id="75rw1hecKQY-QGVVvUyk-43" value="Libudev" style="rounded=0;whiteSpace=wrap;html=1;" vertex="1" parent="1">
          <mxGeometry x="500" y="140" width="90" height="40" as="geometry" />
        </mxCell>
        <mxCell id="75rw1hecKQY-QGVVvUyk-44" value="" style="endArrow=classic;html=1;rounded=0;entryX=0.933;entryY=0.93;entryDx=0;entryDy=0;entryPerimeter=0;fillColor=#dae8fc;strokeColor=#6c8ebf;strokeWidth=2;" edge="1" parent="1" target="75rw1hecKQY-QGVVvUyk-52">
          <mxGeometry width="50" height="50" relative="1" as="geometry">
            <mxPoint x="390.05" y="460" as="sourcePoint" />
            <mxPoint x="387.55" y="490" as="targetPoint" />
            <Array as="points">
              <mxPoint x="410.05" y="460" />
              <mxPoint x="410.3" y="500" />
            </Array>
          </mxGeometry>
        </mxCell>
        <mxCell id="75rw1hecKQY-QGVVvUyk-45" value="Call run()" style="edgeLabel;html=1;align=center;verticalAlign=middle;resizable=0;points=[];" vertex="1" connectable="0" parent="75rw1hecKQY-QGVVvUyk-44">
          <mxGeometry x="-0.2918" y="1" relative="1" as="geometry">
            <mxPoint x="20" y="12" as="offset" />
          </mxGeometry>
        </mxCell>
        <mxCell id="75rw1hecKQY-QGVVvUyk-46" value="" style="endArrow=classic;html=1;rounded=0;exitX=0.8;exitY=1;exitDx=0;exitDy=0;exitPerimeter=0;fillColor=#dae8fc;strokeColor=#6c8ebf;strokeWidth=2;" edge="1" parent="1">
          <mxGeometry width="50" height="50" relative="1" as="geometry">
            <mxPoint x="381.25" y="277.24" as="sourcePoint" />
            <mxPoint x="540" y="276.74" as="targetPoint" />
          </mxGeometry>
        </mxCell>
        <mxCell id="75rw1hecKQY-QGVVvUyk-47" value="Open" style="edgeLabel;html=1;align=center;verticalAlign=middle;resizable=0;points=[];" vertex="1" connectable="0" parent="75rw1hecKQY-QGVVvUyk-46">
          <mxGeometry x="-0.3278" y="-3" relative="1" as="geometry">
            <mxPoint x="27" y="-13" as="offset" />
          </mxGeometry>
        </mxCell>
        <mxCell id="75rw1hecKQY-QGVVvUyk-48" value="" style="endArrow=classic;html=1;rounded=0;dashed=1;dashPattern=8 8;fillColor=#f8cecc;strokeColor=#b85450;strokeWidth=2;" edge="1" parent="1">
          <mxGeometry width="50" height="50" relative="1" as="geometry">
            <mxPoint x="541.25" y="308.23" as="sourcePoint" />
            <mxPoint x="381.25" y="308.45000000000005" as="targetPoint" />
          </mxGeometry>
        </mxCell>
        <mxCell id="75rw1hecKQY-QGVVvUyk-49" value="Return -1" style="edgeLabel;html=1;align=center;verticalAlign=middle;resizable=0;points=[];" vertex="1" connectable="0" parent="75rw1hecKQY-QGVVvUyk-48">
          <mxGeometry x="0.0207" y="3" relative="1" as="geometry">
            <mxPoint x="-6" y="-13" as="offset" />
          </mxGeometry>
        </mxCell>
        <mxCell id="75rw1hecKQY-QGVVvUyk-50" value="" style="endArrow=classic;html=1;rounded=0;dashed=1;dashPattern=8 8;fillColor=#f8cecc;strokeColor=#b85450;strokeWidth=2;" edge="1" parent="1">
          <mxGeometry width="50" height="50" relative="1" as="geometry">
            <mxPoint x="541.25" y="359.74" as="sourcePoint" />
            <mxPoint x="381.25" y="359.96000000000004" as="targetPoint" />
          </mxGeometry>
        </mxCell>
        <mxCell id="75rw1hecKQY-QGVVvUyk-51" value="Return 1" style="edgeLabel;html=1;align=center;verticalAlign=middle;resizable=0;points=[];" vertex="1" connectable="0" parent="75rw1hecKQY-QGVVvUyk-50">
          <mxGeometry x="0.0207" y="3" relative="1" as="geometry">
            <mxPoint x="-6" y="-13" as="offset" />
          </mxGeometry>
        </mxCell>
        <mxCell id="75rw1hecKQY-QGVVvUyk-52" value="" style="rounded=1;whiteSpace=wrap;html=1;rotation=-90;" vertex="1" parent="1">
          <mxGeometry x="255.95000000000002" y="608.65" width="259.46" height="10" as="geometry" />
        </mxCell>
        <mxCell id="75rw1hecKQY-QGVVvUyk-64" value="Dev on Linux&amp;nbsp;" style="rounded=0;whiteSpace=wrap;html=1;" vertex="1" parent="1">
          <mxGeometry x="643.44" y="140" width="90" height="40" as="geometry" />
        </mxCell>
        <mxCell id="75rw1hecKQY-QGVVvUyk-65" value="" style="endArrow=none;dashed=1;html=1;rounded=0;" edge="1" parent="1" source="75rw1hecKQY-QGVVvUyk-67">
          <mxGeometry width="50" height="50" relative="1" as="geometry">
            <mxPoint x="693" y="770" as="sourcePoint" />
            <mxPoint x="693.44" y="180" as="targetPoint" />
          </mxGeometry>
        </mxCell>
        <mxCell id="75rw1hecKQY-QGVVvUyk-68" value="" style="endArrow=classic;html=1;rounded=0;exitX=0.8;exitY=1;exitDx=0;exitDy=0;exitPerimeter=0;fillColor=#dae8fc;strokeColor=#6c8ebf;strokeWidth=2;" edge="1" parent="1">
          <mxGeometry width="50" height="50" relative="1" as="geometry">
            <mxPoint x="390" y="511.53" as="sourcePoint" />
            <mxPoint x="680" y="511.03" as="targetPoint" />
          </mxGeometry>
        </mxCell>
        <mxCell id="75rw1hecKQY-QGVVvUyk-69" value="Access to /dev&amp;nbsp;" style="edgeLabel;html=1;align=center;verticalAlign=middle;resizable=0;points=[];" vertex="1" connectable="0" parent="75rw1hecKQY-QGVVvUyk-68">
          <mxGeometry x="-0.3278" y="-3" relative="1" as="geometry">
            <mxPoint x="52" y="-13" as="offset" />
          </mxGeometry>
        </mxCell>
        <mxCell id="75rw1hecKQY-QGVVvUyk-71" value="" style="endArrow=classic;html=1;rounded=0;fillColor=#dae8fc;strokeColor=#6c8ebf;strokeWidth=2;" edge="1" parent="1">
          <mxGeometry width="50" height="50" relative="1" as="geometry">
            <mxPoint x="396.3" y="539.25" as="sourcePoint" />
            <mxPoint x="691.28" y="539.25" as="targetPoint" />
          </mxGeometry>
        </mxCell>
        <mxCell id="75rw1hecKQY-QGVVvUyk-72" value="Waiting for event" style="edgeLabel;html=1;align=center;verticalAlign=middle;resizable=0;points=[];" vertex="1" connectable="0" parent="75rw1hecKQY-QGVVvUyk-71">
          <mxGeometry x="-0.3278" y="-3" relative="1" as="geometry">
            <mxPoint x="52" y="-13" as="offset" />
          </mxGeometry>
        </mxCell>
        <mxCell id="75rw1hecKQY-QGVVvUyk-77" value="" style="endArrow=classic;html=1;rounded=0;fillColor=#f8cecc;strokeColor=#b85450;strokeWidth=2;" edge="1" parent="1">
          <mxGeometry width="50" height="50" relative="1" as="geometry">
            <mxPoint x="373.8" y="620" as="sourcePoint" />
            <mxPoint x="186.3" y="619.9999999999999" as="targetPoint" />
          </mxGeometry>
        </mxCell>
        <mxCell id="75rw1hecKQY-QGVVvUyk-78" value="Send remove signal" style="edgeLabel;html=1;align=center;verticalAlign=middle;resizable=0;points=[];" vertex="1" connectable="0" parent="75rw1hecKQY-QGVVvUyk-77">
          <mxGeometry x="-0.3278" y="-3" relative="1" as="geometry">
            <mxPoint x="-25" y="-7" as="offset" />
          </mxGeometry>
        </mxCell>
        <mxCell id="75rw1hecKQY-QGVVvUyk-81" value="" style="endArrow=classic;html=1;rounded=0;exitX=0.8;exitY=1;exitDx=0;exitDy=0;exitPerimeter=0;fillColor=#dae8fc;strokeColor=#6c8ebf;strokeWidth=2;" edge="1" parent="1">
          <mxGeometry width="50" height="50" relative="1" as="geometry">
            <mxPoint x="180.00000000000003" y="720.5" as="sourcePoint" />
            <mxPoint x="809.9999999999999" y="720" as="targetPoint" />
          </mxGeometry>
        </mxCell>
        <mxCell id="75rw1hecKQY-QGVVvUyk-82" value="Send signal to change camera functions" style="edgeLabel;html=1;align=center;verticalAlign=middle;resizable=0;points=[];" vertex="1" connectable="0" parent="75rw1hecKQY-QGVVvUyk-81">
          <mxGeometry x="-0.3278" y="-3" relative="1" as="geometry">
            <mxPoint x="108" y="-13" as="offset" />
          </mxGeometry>
        </mxCell>
        <mxCell id="75rw1hecKQY-QGVVvUyk-87" value="Camera Screen" style="rounded=0;whiteSpace=wrap;html=1;" vertex="1" parent="1">
          <mxGeometry x="776.3000000000001" y="140" width="90" height="40" as="geometry" />
        </mxCell>
        <mxCell id="75rw1hecKQY-QGVVvUyk-88" value="" style="endArrow=none;dashed=1;html=1;rounded=0;" edge="1" parent="1" source="75rw1hecKQY-QGVVvUyk-90">
          <mxGeometry width="50" height="50" relative="1" as="geometry">
            <mxPoint x="821" y="780" as="sourcePoint" />
            <mxPoint x="820.88" y="180" as="targetPoint" />
          </mxGeometry>
        </mxCell>
        <mxCell id="75rw1hecKQY-QGVVvUyk-89" value="" style="endArrow=none;dashed=1;html=1;rounded=0;" edge="1" parent="1" target="75rw1hecKQY-QGVVvUyk-90">
          <mxGeometry width="50" height="50" relative="1" as="geometry">
            <mxPoint x="820.88" y="490" as="sourcePoint" />
            <mxPoint x="820.88" y="180" as="targetPoint" />
          </mxGeometry>
        </mxCell>
        <mxCell id="75rw1hecKQY-QGVVvUyk-70" value="While(true)" style="shape=umlFrame;whiteSpace=wrap;html=1;pointerEvents=0;width=70;height=29;" vertex="1" parent="1">
          <mxGeometry x="216.3" y="520" width="500" height="220" as="geometry" />
        </mxCell>
        <mxCell id="75rw1hecKQY-QGVVvUyk-95" value="" style="endArrow=classic;html=1;rounded=0;fillColor=#f8cecc;strokeColor=#b85450;strokeWidth=2;" edge="1" parent="1">
          <mxGeometry width="50" height="50" relative="1" as="geometry">
            <mxPoint x="690.7199999999999" y="580" as="sourcePoint" />
            <mxPoint x="391.89" y="580" as="targetPoint" />
          </mxGeometry>
        </mxCell>
        <mxCell id="75rw1hecKQY-QGVVvUyk-96" value="Return event" style="edgeLabel;html=1;align=center;verticalAlign=middle;resizable=0;points=[];" vertex="1" connectable="0" parent="75rw1hecKQY-QGVVvUyk-95">
          <mxGeometry x="-0.3278" y="-3" relative="1" as="geometry">
            <mxPoint x="-25" y="-7" as="offset" />
          </mxGeometry>
        </mxCell>
        <mxCell id="75rw1hecKQY-QGVVvUyk-97" value="Remove" style="shape=umlFrame;whiteSpace=wrap;html=1;pointerEvents=0;width=60;height=18;" vertex="1" parent="1">
          <mxGeometry x="106.3" y="589" width="290" height="51" as="geometry" />
        </mxCell>
        <mxCell id="75rw1hecKQY-QGVVvUyk-98" value="Plug-in" style="shape=umlFrame;whiteSpace=wrap;html=1;pointerEvents=0;width=60;height=18;" vertex="1" parent="1">
          <mxGeometry x="106.3" y="650" width="290" height="51" as="geometry" />
        </mxCell>
        <mxCell id="75rw1hecKQY-QGVVvUyk-99" value="" style="endArrow=classic;html=1;rounded=0;fillColor=#f8cecc;strokeColor=#b85450;strokeWidth=2;" edge="1" parent="1">
          <mxGeometry width="50" height="50" relative="1" as="geometry">
            <mxPoint x="373.8" y="675.21" as="sourcePoint" />
            <mxPoint x="186.3" y="675.2099999999999" as="targetPoint" />
          </mxGeometry>
        </mxCell>
        <mxCell id="75rw1hecKQY-QGVVvUyk-100" value="Send add signal" style="edgeLabel;html=1;align=center;verticalAlign=middle;resizable=0;points=[];" vertex="1" connectable="0" parent="75rw1hecKQY-QGVVvUyk-99">
          <mxGeometry x="-0.3278" y="-3" relative="1" as="geometry">
            <mxPoint x="-25" y="-7" as="offset" />
          </mxGeometry>
        </mxCell>
        <mxCell id="75rw1hecKQY-QGVVvUyk-104" value="" style="endArrow=classic;html=1;rounded=0;exitX=0.8;exitY=1;exitDx=0;exitDy=0;exitPerimeter=0;" edge="1" parent="1">
          <mxGeometry width="50" height="50" relative="1" as="geometry">
            <mxPoint x="50.00000000000003" y="558.73" as="sourcePoint" />
            <mxPoint x="679.9999999999999" y="558.23" as="targetPoint" />
          </mxGeometry>
        </mxCell>
        <mxCell id="75rw1hecKQY-QGVVvUyk-105" value="User Action" style="edgeLabel;html=1;align=center;verticalAlign=middle;resizable=0;points=[];" vertex="1" connectable="0" parent="75rw1hecKQY-QGVVvUyk-104">
          <mxGeometry x="-0.3278" y="-3" relative="1" as="geometry">
            <mxPoint x="108" y="-13" as="offset" />
          </mxGeometry>
        </mxCell>
        <mxCell id="75rw1hecKQY-QGVVvUyk-106" value="" style="endArrow=none;dashed=1;html=1;rounded=0;" edge="1" parent="1" target="75rw1hecKQY-QGVVvUyk-90">
          <mxGeometry width="50" height="50" relative="1" as="geometry">
            <mxPoint x="821" y="780" as="sourcePoint" />
            <mxPoint x="820.88" y="180" as="targetPoint" />
          </mxGeometry>
        </mxCell>
        <mxCell id="75rw1hecKQY-QGVVvUyk-90" value="" style="rounded=1;whiteSpace=wrap;html=1;rotation=-90;" vertex="1" parent="1">
          <mxGeometry x="569.78" y="488.17999999999995" width="503.04" height="10" as="geometry" />
        </mxCell>
        <mxCell id="75rw1hecKQY-QGVVvUyk-107" value="" style="endArrow=none;dashed=1;html=1;rounded=0;" edge="1" parent="1" target="75rw1hecKQY-QGVVvUyk-67">
          <mxGeometry width="50" height="50" relative="1" as="geometry">
            <mxPoint x="693" y="770" as="sourcePoint" />
            <mxPoint x="693.44" y="180" as="targetPoint" />
          </mxGeometry>
        </mxCell>
        <mxCell id="75rw1hecKQY-QGVVvUyk-67" value="" style="rounded=1;whiteSpace=wrap;html=1;rotation=-90;" vertex="1" parent="1">
          <mxGeometry x="430.67" y="498.17999999999995" width="522.81" height="10" as="geometry" />
        </mxCell>
      </root>
    </mxGraphModel>
  </diagram>
</mxfile>
